<svg id="visual" viewBox="0 0 900 600" width="900" height="600" xmlns="http://www.w3.org/2000/svg" xmlns:xlink="http://www.w3.org/1999/xlink" version="1.1"><path d="M0 509L21.5 505.3C43 501.7 86 494.3 128.8 482.2C171.7 470 214.3 453 257.2 455.5C300 458 343 480 385.8 477C428.7 474 471.3 446 514.2 438.3C557 430.7 600 443.3 642.8 456.2C685.7 469 728.3 482 771.2 475.3C814 468.7 857 442.3 878.5 429.2L900 416L900 601L878.5 601C857 601 814 601 771.2 601C728.3 601 685.7 601 642.8 601C600 601 557 601 514.2 601C471.3 601 428.7 601 385.8 601C343 601 300 601 257.2 601C214.3 601 171.7 601 128.8 601C86 601 43 601 21.5 601L0 601Z" fill="#ff0000"></path><path d="M0 488L21.5 487.5C43 487 86 486 128.8 489.7C171.7 493.3 214.3 501.7 257.2 503.5C300 505.3 343 500.7 385.8 503C428.7 505.3 471.3 514.7 514.2 522.2C557 529.7 600 535.3 642.8 540.8C685.7 546.3 728.3 551.7 771.2 542.5C814 533.3 857 509.7 878.5 497.8L900 486L900 601L878.5 601C857 601 814 601 771.2 601C728.3 601 685.7 601 642.8 601C600 601 557 601 514.2 601C471.3 601 428.7 601 385.8 601C343 601 300 601 257.2 601C214.3 601 171.7 601 128.8 601C86 601 43 601 21.5 601L0 601Z" fill="#009473"></path></svg>