<?xml version="1.0" encoding="UTF-8"?>
<svg id="Layer_1" xmlns="http://www.w3.org/2000/svg" xmlns:xlink="http://www.w3.org/1999/xlink" viewBox="0 0 403.21 304.29">
  <defs>
    <style>
      .cls-1 {
        letter-spacing: .05em;
      }

      .cls-2 {
        fill: #f0689c;
      }

      .cls-3 {
        fill: #6d54a3;
      }

      .cls-4 {
        fill: #60c9de;
      }

      .cls-5 {
        letter-spacing: .05em;
      }

      .cls-6 {
        letter-spacing: .06em;
      }

      .cls-7, .cls-8 {
        fill: #545555;
      }

      .cls-7, .cls-9 {
        opacity: .08;
      }

      .cls-10 {
        letter-spacing: 0em;
      }

      .cls-11 {
        letter-spacing: .02em;
      }

      .cls-8 {
        font-family: Roboto-Regular, Roboto;
        font-size: 7px;
      }

      .cls-12 {
        letter-spacing: .04em;
      }

      .cls-13 {
        letter-spacing: .05em;
      }

      .cls-14 {
        letter-spacing: 0em;
      }

      .cls-15 {
        fill: #f9d507;
      }

      .cls-16 {
        letter-spacing: 0em;
      }

      .cls-17 {
        letter-spacing: 0em;
      }

      .cls-18 {
        fill: #7159a6;
      }

      .cls-19 {
        letter-spacing: 0em;
      }

      .cls-20 {
        letter-spacing: .04em;
      }

      .cls-21 {
        fill: none;
        stroke: #1d262d;
        stroke-miterlimit: 10;
      }

      .cls-22 {
        fill: url(#Degradado_sin_nombre_319);
      }

      .cls-23 {
        letter-spacing: 0em;
      }

      .cls-24 {
        letter-spacing: 0em;
      }

      .cls-25 {
        letter-spacing: -.05em;
      }

      .cls-26 {
        letter-spacing: .06em;
      }

      .cls-27 {
        fill: #010101;
        font-size: 5.88px;
      }

      .cls-27, .cls-28, .cls-29 {
        font-family: Montserrat-Light, Montserrat;
        font-weight: 300;
      }

      .cls-30 {
        fill: url(#Degradado_sin_nombre_318);
      }

      .cls-31 {
        fill: #1d262d;
      }

      .cls-32 {
        fill: #fee44b;
      }

      .cls-33 {
        letter-spacing: -.01em;
      }

      .cls-34 {
        fill: #ef4e83;
      }

      .cls-35 {
        letter-spacing: 0em;
      }

      .cls-36 {
        letter-spacing: 0em;
      }

      .cls-37 {
        letter-spacing: .02em;
      }

      .cls-38 {
        letter-spacing: 0em;
      }

      .cls-39 {
        letter-spacing: .05em;
      }

      .cls-40 {
        letter-spacing: 0em;
      }

      .cls-28 {
        font-size: 16px;
      }

      .cls-28, .cls-29 {
        fill: #fff;
      }

      .cls-9 {
        fill: #383838;
      }

      .cls-29 {
        font-size: 19.96px;
      }

      .cls-41 {
        letter-spacing: .06em;
      }

      .cls-42 {
        letter-spacing: .06em;
      }

      .cls-43 {
        fill: #8ad4e8;
      }

      .cls-44 {
        letter-spacing: -.05em;
      }

      .cls-45 {
        letter-spacing: 0em;
      }

      .cls-46 {
        letter-spacing: -.03em;
      }

      .cls-47 {
        letter-spacing: -.01em;
      }

      .cls-48 {
        fill: url(#Degradado_sin_nombre_317);
      }
    </style>
    <linearGradient id="Degradado_sin_nombre_319" data-name="Degradado sin nombre 319" x1="102.34" y1="277.22" x2="102.34" y2="149.61" gradientUnits="userSpaceOnUse">
      <stop offset="0" stop-color="#fee44b"/>
      <stop offset="1" stop-color="#f0689c"/>
    </linearGradient>
    <linearGradient id="Degradado_sin_nombre_318" data-name="Degradado sin nombre 318" x1="201.66" y1="213.41" x2="201.66" y2="85.81" gradientUnits="userSpaceOnUse">
      <stop offset="0" stop-color="#f0689c"/>
      <stop offset="1" stop-color="#7159a6"/>
    </linearGradient>
    <linearGradient id="Degradado_sin_nombre_317" data-name="Degradado sin nombre 317" x1="301.03" y1="149.61" x2="301.03" y2="22.01" gradientUnits="userSpaceOnUse">
      <stop offset="0" stop-color="#7159a6"/>
      <stop offset="1" stop-color="#8ad4e8"/>
    </linearGradient>
  </defs>
  <circle class="cls-9" cx="52.09" cy="114.72" r="51.74"/>
  <path class="cls-18" d="M228.97,85.81h74.73v33.86c0,16.53-13.42,29.95-29.95,29.95h-74.73v-33.86c0-16.53,13.42-29.95,29.95-29.95Z"/>
  <path class="cls-32" d="M30.07,213.41h74.4c.11,0,.2.09.2.2v33.53c0,16.6-13.47,30.07-30.07,30.07H.2c-.11,0-.2-.09-.2-.2v-33.53c0-16.6,13.47-30.07,30.07-30.07Z"/>
  <path class="cls-15" d="M104.47,213.41h-19.96c.11,0,.2.09.2.2v33.53c0,16.61-13.46,30.07-30.07,30.07h19.96c16.61,0,30.07-13.46,30.07-30.07v-33.53c0-.11-.09-.2-.2-.2Z"/>
  <path class="cls-43" d="M328.49,22.01h74.73v33.86c0,16.53-13.42,29.95-29.95,29.95h-74.73v-33.86c0-16.53,13.42-29.95,29.95-29.95Z"/>
  <path class="cls-4" d="M383.25,22.01v33.86c0,16.54-13.41,29.95-29.95,29.95h19.96c16.54,0,29.95-13.41,29.95-29.95V22.01h-19.96Z"/>
  <path class="cls-2" d="M129.56,149.61h74.63v33.75c0,16.58-13.46,30.05-30.05,30.05h-74.63v-33.75c0-16.58,13.46-30.05,30.05-30.05Z"/>
  <path class="cls-34" d="M184.22,149.61v33.75c0,16.59-13.45,30.05-30.05,30.05h19.96c16.59,0,30.05-13.45,30.05-30.05v-33.75h-19.96Z"/>
  <path class="cls-3" d="M283.74,85.81v33.86c0,16.54-13.41,29.95-29.95,29.95h19.96c16.54,0,29.95-13.41,29.95-29.95v-33.86h-19.96Z"/>
  <path class="cls-22" d="M129.57,149.61c-16.59,0-30.05,13.45-30.05,30.05v33.75h-.2c.11,0,.2.09.2.2v33.53c0,16.61-13.46,30.07-30.07,30.07h5.66c16.61,0,30.07-13.46,30.07-30.07v-33.53c0-.11-.09-.2-.2-.2h.2v-33.75c0-16.59,13.45-30.05,30.05-30.05h-5.66Z"/>
  <path class="cls-30" d="M228.89,85.81c-16.59,0-30.05,13.45-30.05,30.05v33.75h-.2c.11,0,.2.09.2.2v33.53c0,16.61-13.46,30.07-30.07,30.07h5.66c16.61,0,30.07-13.46,30.07-30.07v-33.53c0-.11-.09-.2-.2-.2h.2v-33.75c0-16.59,13.45-30.05,30.05-30.05h-5.66Z"/>
  <path class="cls-48" d="M328.25,22.01c-16.59,0-30.05,13.45-30.05,30.05v33.75h-.2c.11,0,.2.09.2.2v33.53c0,16.61-13.46,30.07-30.07,30.07h5.66c16.61,0,30.07-13.46,30.07-30.07v-33.53c0-.11-.09-.2-.2-.2h.2v-33.75c0-16.59,13.45-30.05,30.05-30.05h-5.66Z"/>
  <g>
    <text class="cls-29" transform="translate(29.47 249)"><tspan class="cls-17" x="0" y="0">2</tspan><tspan class="cls-19" x="11.16" y="0">0</tspan><tspan x="24.28" y="0">18</tspan></text>
    <text class="cls-27" transform="translate(27.89 259.88)"><tspan class="cls-5" x="0" y="0">F</tspan><tspan class="cls-26" x="4.01" y="0">OUN</tspan><tspan class="cls-39" x="19.46" y="0">D</tspan><tspan class="cls-37" x="24.61" y="0">A</tspan><tspan class="cls-26" x="28.9" y="0">TION</tspan></text>
  </g>
  <g>
    <text class="cls-28" transform="translate(129.14 187.02)"><tspan class="cls-24" x="0" y="0">2</tspan><tspan class="cls-35" x="8.94" y="0">0</tspan><tspan class="cls-45" x="19.46" y="0">2</tspan><tspan class="cls-16" x="28.4" y="0">0</tspan></text>
    <text class="cls-27" transform="translate(133.71 196.91)"><tspan class="cls-26" x="0" y="0">GR</tspan><tspan class="cls-12" x="9.49" y="0">O</tspan><tspan class="cls-6" x="14.65" y="0">W</tspan><tspan class="cls-26" x="21.44" y="0">TH</tspan></text>
  </g>
  <g>
    <text class="cls-29" transform="translate(321.58 58.22)"><tspan class="cls-40" x="0" y="0">2</tspan><tspan class="cls-10" x="11.16" y="0">0</tspan><tspan class="cls-46" x="24.28" y="0">2</tspan><tspan class="cls-14" x="35" y="0">4</tspan></text>
    <text class="cls-27" transform="translate(325.93 68.1)"><tspan class="cls-5" x="0" y="0">E</tspan><tspan class="cls-20" x="4.24" y="0">X</tspan><tspan class="cls-11" x="8.22" y="0">P</tspan><tspan class="cls-41" x="12.52" y="0">ANSION</tspan></text>
  </g>
  <g>
    <text class="cls-29" transform="translate(224.54 121.95)"><tspan class="cls-40" x="0" y="0">2</tspan><tspan class="cls-10" x="11.16" y="0">0</tspan><tspan x="24.28" y="0">22</tspan></text>
    <text class="cls-27" transform="translate(215.9 131.84)"><tspan class="cls-41" x="0" y="0">G</tspan><tspan class="cls-13" x="4.9" y="0">L</tspan><tspan class="cls-42" x="8.61" y="0">OBAL </tspan><tspan class="cls-1" x="28.83" y="0">P</tspan><tspan class="cls-42" x="33.33" y="0">RESENCE</tspan></text>
  </g>
  <g>
    <line class="cls-21" x1="52.34" y1="209.21" x2="52.34" y2="158.45"/>
    <circle class="cls-21" cx="52.57" cy="214.12" r="4.91"/>
    <circle class="cls-31" cx="52.57" cy="214.12" r="2.12"/>
  </g>
  <text class="cls-8" transform="translate(39.22 98.67)"><tspan x="0" y="0">Zaimah</tspan><tspan x="-31.03" y="11"> </tspan><tspan class="cls-25" x="-29.29" y="11">T</tspan><tspan x="-25.44" y="11">echnologies was founded </tspan><tspan x="-24.17" y="22">in Bangladesh, of</tspan><tspan class="cls-33" x="29.86" y="22">f</tspan><tspan x="32.08" y="22">ering </tspan><tspan x="-27.98" y="33">softwa</tspan><tspan class="cls-23" x="-6.54" y="33">r</tspan><tspan x="-4.15" y="33">e solutions and </tspan><tspan class="cls-47" x="45.66" y="33">I</tspan><tspan x="47.54" y="33">T </tspan><tspan x="-2.12" y="44">se</tspan><tspan class="cls-36" x="5.21" y="44">r</tspan><tspan x="7.72" y="44">vices.</tspan></text>
  <g>
    <circle class="cls-7" cx="152.6" cy="51.74" r="51.74"/>
    <text class="cls-8" transform="translate(132.64 32.4)"><tspan x="0" y="0">The company</tspan><tspan x="-13.74" y="11" xml:space="preserve"> added </tspan><tspan class="cls-47" x="9.18" y="11">I</tspan><tspan x="11.06" y="11">T consultanc</tspan><tspan class="cls-44" x="51.86" y="11">y</tspan><tspan x="55.02" y="11">, </tspan><tspan x="-16.86" y="22">cloud, and cybersecurity </tspan><tspan x="-17.12" y="33">se</tspan><tspan class="cls-36" x="-9.79" y="33">r</tspan><tspan x="-7.28" y="33">vices, building a solid </tspan><tspan x="3.35" y="44">client base.</tspan></text>
    <g>
      <line class="cls-21" x1="151.62" y1="144.83" x2="151.62" y2="94.06"/>
      <circle class="cls-21" cx="151.85" cy="149.74" r="4.91"/>
      <circle class="cls-31" cx="151.85" cy="149.74" r="2.12"/>
    </g>
  </g>
  <circle class="cls-9" cx="337.88" cy="187.02" r="51.74"/>
  <g>
    <line class="cls-21" x1="337.88" y1="90.26" x2="337.88" y2="144.71"/>
    <path class="cls-21" d="M342.55,85.35c0,2.71-2.2,4.91-4.91,4.91s-4.91-2.2-4.91-4.91,2.2-4.91,4.91-4.91,4.91,2.2,4.91,4.91Z"/>
    <path class="cls-31" d="M339.76,85.35c0,1.17-.95,2.12-2.12,2.12s-2.12-.95-2.12-2.12.95-2.12,2.12-2.12,2.12.95,2.12,2.12Z"/>
  </g>
  <g>
    <circle class="cls-9" cx="240.79" cy="251.19" r="51.74"/>
    <g>
      <line class="cls-21" x1="240.79" y1="154.43" x2="240.79" y2="208.88"/>
      <path class="cls-21" d="M245.47,149.52c0,2.71-2.2,4.91-4.91,4.91s-4.91-2.2-4.91-4.91,2.2-4.91,4.91-4.91,4.91,2.2,4.91,4.91Z"/>
      <path class="cls-31" d="M242.68,149.52c0,1.17-.95,2.12-2.12,2.12s-2.12-.95-2.12-2.12.95-2.12,2.12-2.12,2.12.95,2.12,2.12Z"/>
    </g>
    <text class="cls-8" transform="translate(220.26 233.15)"><tspan x="0" y="0">The company</tspan><tspan x="-20.37" y="11" xml:space="preserve"> ente</tspan><tspan class="cls-23" x="-4.97" y="11">r</tspan><tspan x="-2.58" y="11">ed the USA,Mal</tspan><tspan class="cls-38" x="45.06" y="11">a</tspan><tspan x="48.85" y="11">ysia, </tspan><tspan x="-10.35" y="22">and the Middle East, </tspan><tspan x="-13.26" y="33">focusing on ad</tspan><tspan class="cls-38" x="33.31" y="33">v</tspan><tspan x="36.78" y="33">anced</tspan><tspan x="-9.66" y="44" xml:space="preserve"> softwa</tspan><tspan class="cls-23" x="13.53" y="44">r</tspan><tspan x="15.92" y="44">e solutions.</tspan></text>
  </g>
  <text class="cls-8" transform="translate(305.17 180.98)"><tspan x="0" y="0">Zaimah </tspan><tspan class="cls-25" x="25.48" y="0">T</tspan><tspan x="29.33" y="0">echnologies </tspan><tspan x="-8.95" y="11">opened a Bangkok office to </tspan><tspan x="-7.1" y="22">expand in Southeast Asia.</tspan></text>
</svg>