<?xml version="1.0" encoding="UTF-8"?>
<svg id="Layer_1" xmlns="http://www.w3.org/2000/svg" xmlns:xlink="http://www.w3.org/1999/xlink" viewBox="0 0 610.91 383.39">
  <defs>
    <style>
      .cls-1 {
        letter-spacing: .05em;
      }

      .cls-2 {
        fill: #d48b45;
      }

      .cls-3 {
        fill: #f0689c;
      }

      .cls-4 {
        fill: #cb5034;
      }

      .cls-5 {
        fill: url(#linear-gradient-2);
      }

      .cls-6 {
        fill: #6d54a3;
      }

      .cls-7 {
        fill: #60c9de;
      }

      .cls-8 {
        letter-spacing: .05em;
      }

      .cls-9 {
        letter-spacing: .06em;
      }

      .cls-10, .cls-11 {
        fill: #545555;
      }

      .cls-10, .cls-12 {
        opacity: .08;
      }

      .cls-13 {
        letter-spacing: 0em;
      }

      .cls-14 {
        letter-spacing: -.01em;
      }

      .cls-15 {
        letter-spacing: .02em;
      }

      .cls-11 {
        font-family: Roboto-Regular, Roboto;
        font-size: 7px;
      }

      .cls-16 {
        letter-spacing: .04em;
      }

      .cls-17 {
        letter-spacing: 0em;
      }

      .cls-18 {
        letter-spacing: 0em;
      }

      .cls-19 {
        letter-spacing: 0em;
      }

      .cls-20 {
        letter-spacing: .05em;
      }

      .cls-21 {
        letter-spacing: 0em;
      }

      .cls-22 {
        letter-spacing: 0em;
      }

      .cls-23 {
        fill: #f9d507;
      }

      .cls-24 {
        letter-spacing: 0em;
      }

      .cls-25 {
        letter-spacing: 0em;
      }

      .cls-26 {
        fill: #7159a6;
      }

      .cls-27 {
        fill: #f9a354;
      }

      .cls-28 {
        letter-spacing: 0em;
      }

      .cls-29 {
        letter-spacing: .04em;
      }

      .cls-30 {
        fill: none;
        stroke: #1d262d;
        stroke-miterlimit: 10;
      }

      .cls-31 {
        fill: url(#Degradado_sin_nombre_319);
      }

      .cls-32 {
        letter-spacing: 0em;
      }

      .cls-33 {
        letter-spacing: 0em;
      }

      .cls-34 {
        letter-spacing: 0em;
      }

      .cls-35 {
        letter-spacing: 0em;
      }

      .cls-36 {
        letter-spacing: -.05em;
      }

      .cls-37 {
        letter-spacing: .06em;
      }

      .cls-38 {
        fill: #010101;
        font-size: 5.88px;
      }

      .cls-38, .cls-39, .cls-40 {
        font-family: Montserrat-Light, Montserrat;
        font-weight: 300;
      }

      .cls-41 {
        fill: url(#Degradado_sin_nombre_318);
      }

      .cls-42 {
        fill: #1d262d;
      }

      .cls-43 {
        fill: #fee44b;
      }

      .cls-44 {
        fill: #f26441;
      }

      .cls-45 {
        letter-spacing: -.01em;
      }

      .cls-46 {
        fill: #ef4e83;
      }

      .cls-47 {
        letter-spacing: 0em;
      }

      .cls-48 {
        letter-spacing: 0em;
      }

      .cls-49 {
        letter-spacing: .02em;
      }

      .cls-50 {
        letter-spacing: 0em;
      }

      .cls-51 {
        letter-spacing: .05em;
      }

      .cls-52 {
        letter-spacing: 0em;
      }

      .cls-39 {
        font-size: 16px;
      }

      .cls-39, .cls-40 {
        fill: #fff;
      }

      .cls-12 {
        fill: #383838;
      }

      .cls-40 {
        font-size: 19.96px;
      }

      .cls-53 {
        letter-spacing: .02em;
      }

      .cls-54 {
        letter-spacing: .03em;
      }

      .cls-55 {
        letter-spacing: .06em;
      }

      .cls-56 {
        letter-spacing: .06em;
      }

      .cls-57 {
        fill: url(#linear-gradient);
      }

      .cls-58 {
        fill: #8ad4e8;
      }

      .cls-59 {
        letter-spacing: -.05em;
      }

      .cls-60 {
        letter-spacing: 0em;
      }

      .cls-61 {
        letter-spacing: -.03em;
      }

      .cls-62 {
        letter-spacing: -.01em;
      }

      .cls-63 {
        fill: url(#Degradado_sin_nombre_317);
      }
    </style>
    <linearGradient id="Degradado_sin_nombre_319" data-name="Degradado sin nombre 319" x1="102.34" y1="383.39" x2="102.34" y2="255.79" gradientUnits="userSpaceOnUse">
      <stop offset="0" stop-color="#fee44b"/>
      <stop offset="1" stop-color="#f0689c"/>
    </linearGradient>
    <linearGradient id="Degradado_sin_nombre_318" data-name="Degradado sin nombre 318" x1="201.66" y1="319.59" x2="201.66" y2="191.99" gradientUnits="userSpaceOnUse">
      <stop offset="0" stop-color="#f0689c"/>
      <stop offset="1" stop-color="#7159a6"/>
    </linearGradient>
    <linearGradient id="Degradado_sin_nombre_317" data-name="Degradado sin nombre 317" x1="301.03" y1="255.79" x2="301.03" y2="128.18" gradientUnits="userSpaceOnUse">
      <stop offset="0" stop-color="#7159a6"/>
      <stop offset="1" stop-color="#8ad4e8"/>
    </linearGradient>
    <linearGradient id="linear-gradient" x1="401.94" y1="191.4" x2="401.94" y2="63.8" gradientUnits="userSpaceOnUse">
      <stop offset="0" stop-color="#60c9de"/>
      <stop offset="1" stop-color="#d48b45"/>
    </linearGradient>
    <linearGradient id="linear-gradient-2" x1="503.72" y1="127.6" x2="503.72" y2="0" gradientUnits="userSpaceOnUse">
      <stop offset="0" stop-color="#d48b45"/>
      <stop offset="1" stop-color="#f26441"/>
    </linearGradient>
  </defs>
  <circle class="cls-12" cx="337.88" cy="293.19" r="51.74"/>
  <circle class="cls-12" cx="52.09" cy="220.89" r="51.74"/>
  <path class="cls-26" d="M228.97,191.99h74.73v33.86c0,16.53-13.42,29.95-29.95,29.95h-74.73v-33.86c0-16.53,13.42-29.95,29.95-29.95Z"/>
  <path class="cls-43" d="M30.07,319.59h74.4c.11,0,.2.09.2.2v33.53c0,16.6-13.47,30.07-30.07,30.07H.2c-.11,0-.2-.09-.2-.2v-33.53c0-16.6,13.47-30.07,30.07-30.07Z"/>
  <path class="cls-23" d="M104.47,319.59h-19.96c.11,0,.2.09.2.2v33.53c0,16.61-13.46,30.07-30.07,30.07h19.96c16.61,0,30.07-13.46,30.07-30.07v-33.53c0-.11-.09-.2-.2-.2Z"/>
  <path class="cls-58" d="M328.49,128.18h74.73v33.86c0,16.53-13.42,29.95-29.95,29.95h-74.73v-33.86c0-16.53,13.42-29.95,29.95-29.95Z"/>
  <path class="cls-7" d="M383.25,128.18v33.86c0,16.54-13.41,29.95-29.95,29.95h19.96c16.54,0,29.95-13.41,29.95-29.95v-33.86h-19.96Z"/>
  <path class="cls-3" d="M129.56,255.79h74.63v33.75c0,16.58-13.46,30.05-30.05,30.05h-74.63v-33.75c0-16.58,13.46-30.05,30.05-30.05Z"/>
  <path class="cls-46" d="M184.22,255.79v33.75c0,16.59-13.45,30.05-30.05,30.05h19.96c16.59,0,30.05-13.45,30.05-30.05v-33.75h-19.96Z"/>
  <path class="cls-6" d="M283.74,191.99v33.86c0,16.54-13.41,29.95-29.95,29.95h19.96c16.54,0,29.95-13.41,29.95-29.95v-33.86h-19.96Z"/>
  <path class="cls-31" d="M129.57,255.79c-16.59,0-30.05,13.45-30.05,30.05v33.75h-.2c.11,0,.2.09.2.2v33.53c0,16.61-13.46,30.07-30.07,30.07h5.66c16.61,0,30.07-13.46,30.07-30.07v-33.53c0-.11-.09-.2-.2-.2h.2v-33.75c0-16.59,13.45-30.05,30.05-30.05h-5.66Z"/>
  <path class="cls-41" d="M228.89,191.99c-16.59,0-30.05,13.45-30.05,30.05v33.75h-.2c.11,0,.2.09.2.2v33.53c0,16.61-13.46,30.07-30.07,30.07h5.66c16.61,0,30.07-13.46,30.07-30.07v-33.53c0-.11-.09-.2-.2-.2h.2v-33.75c0-16.59,13.45-30.05,30.05-30.05h-5.66Z"/>
  <path class="cls-63" d="M328.25,128.18c-16.59,0-30.05,13.45-30.05,30.05v33.75h-.2c.11,0,.2.09.2.2v33.53c0,16.61-13.46,30.07-30.07,30.07h5.66c16.61,0,30.07-13.46,30.07-30.07v-33.53c0-.11-.09-.2-.2-.2h.2v-33.75c0-16.59,13.45-30.05,30.05-30.05h-5.66Z"/>
  <g>
    <text class="cls-40" transform="translate(29.47 355.17)"><tspan class="cls-25" x="0" y="0">2</tspan><tspan class="cls-28" x="11.16" y="0">0</tspan><tspan x="24.28" y="0">18</tspan></text>
    <text class="cls-38" transform="translate(27.89 366.06)"><tspan class="cls-8" x="0" y="0">F</tspan><tspan class="cls-37" x="4.01" y="0">OUN</tspan><tspan class="cls-51" x="19.46" y="0">D</tspan><tspan class="cls-49" x="24.61" y="0">A</tspan><tspan class="cls-37" x="28.9" y="0">TION</tspan></text>
  </g>
  <g>
    <text class="cls-39" transform="translate(112.14 293.19)"><tspan class="cls-35" x="0" y="0">2</tspan><tspan class="cls-47" x="8.94" y="0">0</tspan><tspan class="cls-32" x="19.46" y="0">1</tspan><tspan class="cls-34" x="25.1" y="0">9</tspan><tspan class="cls-14" x="34.88" y="0">-</tspan><tspan class="cls-60" x="40.8" y="0">2</tspan><tspan class="cls-47" x="49.74" y="0">0</tspan><tspan class="cls-35" x="60.26" y="0">2</tspan><tspan class="cls-24" x="69.2" y="0">0</tspan></text>
    <text class="cls-38" transform="translate(133.71 303.08)"><tspan class="cls-37" x="0" y="0">GR</tspan><tspan class="cls-16" x="9.49" y="0">O</tspan><tspan class="cls-9" x="14.65" y="0">W</tspan><tspan class="cls-37" x="21.44" y="0">TH</tspan></text>
  </g>
  <g>
    <text class="cls-40" transform="translate(224.88 228.61)"><tspan class="cls-17" x="0" y="0">2</tspan><tspan class="cls-18" x="11.16" y="0">0</tspan><tspan x="24.28" y="0">21</tspan></text>
    <text class="cls-38" transform="translate(226.59 239.5)"><tspan class="cls-8" x="0" y="0">E</tspan><tspan class="cls-29" x="4.24" y="0">X</tspan><tspan class="cls-15" x="8.22" y="0">P</tspan><tspan class="cls-55" x="12.52" y="0">ANSION</tspan></text>
  </g>
  <g>
    <text class="cls-40" transform="translate(321.58 164.39)"><tspan class="cls-52" x="0" y="0">2</tspan><tspan class="cls-13" x="11.16" y="0">0</tspan><tspan x="24.28" y="0">22</tspan></text>
    <text class="cls-38" transform="translate(313.93 173.28)"><tspan class="cls-55" x="0" y="0">G</tspan><tspan class="cls-20" x="4.9" y="0">L</tspan><tspan class="cls-56" x="8.61" y="0">OBAL </tspan><tspan class="cls-1" x="28.83" y="0">P</tspan><tspan class="cls-56" x="33.33" y="0">RESENCE</tspan></text>
  </g>
  <path class="cls-27" d="M429.4,63.8h74.73v33.86c0,16.53-13.42,29.95-29.95,29.95h-74.73v-33.86c0-16.53,13.42-29.95,29.95-29.95Z"/>
  <path class="cls-2" d="M485.93,63.8v33.86c0,16.54-13.41,29.95-29.95,29.95h19.96c16.54,0,29.95-13.41,29.95-29.95v-33.86h-19.96Z"/>
  <path class="cls-57" d="M429.17,63.8c-16.59,0-30.05,13.45-30.05,30.05v33.75h-.2c.11,0,.2.09.2.2v33.53c0,16.61-13.46,30.07-30.07,30.07h5.66c16.61,0,30.07-13.46,30.07-30.07v-33.53c0-.11-.09-.2-.2-.2h.2v-33.75c0-16.59,13.45-30.05,30.05-30.05h-5.66Z"/>
  <g>
    <text class="cls-40" transform="translate(429.49 100.01)"><tspan class="cls-52" x="0" y="0">2</tspan><tspan class="cls-13" x="11.16" y="0">0</tspan><tspan x="24.28" y="0">23</tspan></text>
    <text class="cls-38" transform="translate(428.85 110.9)"><tspan class="cls-56" x="0" y="0">INN</tspan><tspan class="cls-16" x="12.37" y="0">O</tspan><tspan class="cls-53" x="17.53" y="0">V</tspan><tspan class="cls-54" x="21.71" y="0">A</tspan><tspan class="cls-55" x="26.01" y="0">TION</tspan></text>
  </g>
  <path class="cls-44" d="M535.18,0h74.73v33.86c0,16.53-13.42,29.95-29.95,29.95h-74.73V29.95C505.23,13.42,518.65,0,535.18,0Z"/>
  <path class="cls-4" d="M590.94,0v33.86c0,16.54-13.41,29.95-29.95,29.95h19.96c16.54,0,29.95-13.41,29.95-29.95V0h-19.96Z"/>
  <path class="cls-5" d="M530.95,0c-16.59,0-30.05,13.45-30.05,30.05v33.75h-.2c.11,0,.2.09.2.2v33.53c0,16.61-13.46,30.07-30.07,30.07h5.66c16.61,0,30.07-13.46,30.07-30.07v-33.53c0-.11-.09-.2-.2-.2h.2V30.05C506.56,13.45,520.01,0,536.61,0h-5.66Z"/>
  <g>
    <text class="cls-40" transform="translate(536.27 36.21)"><tspan class="cls-52" x="0" y="0">2</tspan><tspan class="cls-13" x="11.16" y="0">0</tspan><tspan class="cls-61" x="24.28" y="0">2</tspan><tspan class="cls-21" x="35" y="0">4</tspan></text>
    <text class="cls-38" transform="translate(512.63 47.1)"><tspan class="cls-55" x="0" y="0">SO</tspan><tspan class="cls-20" x="9.22" y="0">U</tspan><tspan class="cls-55" x="14.15" y="0">THEA</tspan><tspan class="cls-1" x="31.75" y="0">S</tspan><tspan class="cls-55" x="35.63" y="0">T ASIA HUB</tspan></text>
  </g>
  <g>
    <line class="cls-30" x1="337.88" y1="196.43" x2="337.88" y2="250.88"/>
    <path class="cls-30" d="M342.55,191.52c0,2.71-2.2,4.91-4.91,4.91s-4.91-2.2-4.91-4.91,2.2-4.91,4.91-4.91,4.91,2.2,4.91,4.91Z"/>
    <path class="cls-42" d="M339.76,191.52c0,1.17-.95,2.12-2.12,2.12s-2.12-.95-2.12-2.12.95-2.12,2.12-2.12,2.12.95,2.12,2.12Z"/>
  </g>
  <g>
    <line class="cls-30" x1="52.34" y1="315.39" x2="52.34" y2="264.62"/>
    <circle class="cls-30" cx="52.57" cy="320.29" r="4.91"/>
    <circle class="cls-42" cx="52.57" cy="320.29" r="2.12"/>
  </g>
  <text class="cls-11" transform="translate(39.22 204.84)"><tspan x="0" y="0">Zaimah</tspan><tspan x="-31.03" y="11"> </tspan><tspan class="cls-36" x="-29.29" y="11">T</tspan><tspan x="-25.44" y="11">echnologies was founded </tspan><tspan x="-24.17" y="22">in Bangladesh, of</tspan><tspan class="cls-45" x="29.86" y="22">f</tspan><tspan x="32.08" y="22">ering </tspan><tspan x="-27.98" y="33">softwa</tspan><tspan class="cls-33" x="-6.54" y="33">r</tspan><tspan x="-4.15" y="33">e solutions and </tspan><tspan class="cls-62" x="45.66" y="33">I</tspan><tspan x="47.54" y="33">T </tspan><tspan x="-2.12" y="44">se</tspan><tspan class="cls-48" x="5.21" y="44">r</tspan><tspan x="7.72" y="44">vices.</tspan></text>
  <g>
    <circle class="cls-10" cx="152.6" cy="157.92" r="51.74"/>
    <text class="cls-11" transform="translate(132.64 138.58)"><tspan x="0" y="0">The company</tspan><tspan x="-13.74" y="11" xml:space="preserve"> added </tspan><tspan class="cls-62" x="9.18" y="11">I</tspan><tspan x="11.06" y="11">T consultanc</tspan><tspan class="cls-59" x="51.86" y="11">y</tspan><tspan x="55.02" y="11">, </tspan><tspan x="-16.86" y="22">cloud, and cybersecurity </tspan><tspan x="-17.12" y="33">se</tspan><tspan class="cls-48" x="-9.79" y="33">r</tspan><tspan x="-7.28" y="33">vices, building a solid </tspan><tspan x="3.35" y="44">client base.</tspan></text>
    <g>
      <line class="cls-30" x1="151.62" y1="251" x2="151.62" y2="200.24"/>
      <circle class="cls-30" cx="151.85" cy="255.91" r="4.91"/>
      <circle class="cls-42" cx="151.85" cy="255.91" r="2.12"/>
    </g>
  </g>
  <g>
    <circle class="cls-12" cx="255.04" cy="94.31" r="51.74"/>
    <g>
      <line class="cls-30" x1="254.06" y1="187.27" x2="254.06" y2="136.5"/>
      <circle class="cls-30" cx="254.29" cy="192.18" r="4.91"/>
      <circle class="cls-42" cx="254.29" cy="192.18" r="2.12"/>
    </g>
  </g>
  <text class="cls-11" transform="translate(243.17 78.49)"><tspan x="0" y="0">Zaimah </tspan><tspan class="cls-36" x="-19.68" y="11">T</tspan><tspan x="-15.83" y="11">echnologies began </tspan><tspan x="-25.05" y="22">international expansion </tspan><tspan x="-7.38" y="33">ac</tspan><tspan class="cls-22" x=".13" y="33">r</tspan><tspan x="2.51" y="33">oss Asia.</tspan></text>
  <text class="cls-11" transform="translate(317.34 275.15)"><tspan x="0" y="0">The company</tspan><tspan x="-20.37" y="11" xml:space="preserve"> ente</tspan><tspan class="cls-33" x="-4.97" y="11">r</tspan><tspan x="-2.58" y="11">ed the USA,Mal</tspan><tspan class="cls-50" x="45.06" y="11">a</tspan><tspan x="48.85" y="11">ysia, </tspan><tspan x="-10.35" y="22">and the Middle East, </tspan><tspan x="-13.26" y="33">focusing on ad</tspan><tspan class="cls-50" x="33.31" y="33">v</tspan><tspan x="36.78" y="33">anced</tspan><tspan x="-9.66" y="44" xml:space="preserve"> softwa</tspan><tspan class="cls-33" x="13.53" y="44">r</tspan><tspan x="15.92" y="44">e solutions.</tspan></text>
  <circle class="cls-12" cx="438.98" cy="228.4" r="51.74"/>
  <g>
    <line class="cls-30" x1="438.98" y1="131.64" x2="438.98" y2="186.09"/>
    <path class="cls-30" d="M443.66,126.73c0,2.71-2.2,4.91-4.91,4.91s-4.91-2.2-4.91-4.91,2.2-4.91,4.91-4.91,4.91,2.2,4.91,4.91Z"/>
    <path class="cls-42" d="M440.87,126.73c0,1.17-.95,2.12-2.12,2.12s-2.12-.95-2.12-2.12.95-2.12,2.12-2.12,2.12.95,2.12,2.12Z"/>
  </g>
  <text class="cls-11" transform="translate(407.99 221.36)"><tspan x="0" y="0">Zaimah consolidated </tspan><tspan x="-8.44" y="11">operations and in</tspan><tspan class="cls-19" x="46.25" y="11">v</tspan><tspan x="49.73" y="11">ested in </tspan><tspan x="-5.82" y="22">AI and machine learning.</tspan></text>
  <circle class="cls-12" cx="544.57" cy="166.59" r="51.74"/>
  <g>
    <line class="cls-30" x1="543.57" y1="69.83" x2="543.57" y2="124.28"/>
    <path class="cls-30" d="M548.24,64.92c0,2.71-2.2,4.91-4.91,4.91s-4.91-2.2-4.91-4.91,2.2-4.91,4.91-4.91,4.91,2.2,4.91,4.91Z"/>
    <path class="cls-42" d="M545.46,64.92c0,1.17-.95,2.12-2.12,2.12s-2.12-.95-2.12-2.12.95-2.12,2.12-2.12,2.12.95,2.12,2.12Z"/>
  </g>
  <text class="cls-11" transform="translate(511.66 158.55)"><tspan x="0" y="0">Zaimah </tspan><tspan class="cls-36" x="25.48" y="0">T</tspan><tspan x="29.33" y="0">echnologies </tspan><tspan x="-8.95" y="11">opened a Bangkok office to </tspan><tspan x="-7.1" y="22">expand in Southeast Asia.</tspan></text>
</svg>