<?xml version="1.0" encoding="UTF-8"?>
<svg id="Layer_1" xmlns="http://www.w3.org/2000/svg" xmlns:xlink="http://www.w3.org/1999/xlink" viewBox="0 0 715.19 586.79">
  <defs>
    <style>
      .cls-1 {
        letter-spacing: .05em;
      }

      .cls-2 {
        fill: #d48b45;
      }

      .cls-3 {
        fill: #f0689c;
      }

      .cls-4 {
        fill: #cb5034;
      }

      .cls-5 {
        fill: url(#linear-gradient-2);
      }

      .cls-6 {
        fill: #6d54a3;
      }

      .cls-7 {
        fill: #60c9de;
      }

      .cls-8 {
        letter-spacing: .05em;
      }

      .cls-9 {
        letter-spacing: .06em;
      }

      .cls-10, .cls-11 {
        fill: #545555;
      }

      .cls-10, .cls-12 {
        opacity: .08;
      }

      .cls-13 {
        letter-spacing: 0em;
      }

      .cls-14 {
        letter-spacing: -.01em;
      }

      .cls-15 {
        letter-spacing: .02em;
      }

      .cls-11 {
        font-family: Roboto-Regular, Roboto;
        font-size: 7px;
      }

      .cls-16 {
        letter-spacing: .04em;
      }

      .cls-17 {
        letter-spacing: 0em;
      }

      .cls-18 {
        letter-spacing: 0em;
      }

      .cls-19 {
        letter-spacing: 0em;
      }

      .cls-20 {
        letter-spacing: .05em;
      }

      .cls-21 {
        letter-spacing: 0em;
      }

      .cls-22 {
        letter-spacing: 0em;
      }

      .cls-23 {
        fill: #f9d507;
      }

      .cls-24 {
        letter-spacing: 0em;
      }

      .cls-25 {
        letter-spacing: 0em;
      }

      .cls-26 {
        fill: #7159a6;
      }

      .cls-27 {
        fill: #f9a354;
      }

      .cls-28 {
        letter-spacing: 0em;
      }

      .cls-29 {
        letter-spacing: .04em;
      }

      .cls-30 {
        fill: url(#linear-gradient-3);
      }

      .cls-31 {
        fill: none;
        stroke: #1d262d;
        stroke-miterlimit: 10;
      }

      .cls-32 {
        fill: url(#Degradado_sin_nombre_319);
      }

      .cls-33 {
        letter-spacing: 0em;
      }

      .cls-34 {
        letter-spacing: 0em;
      }

      .cls-35 {
        letter-spacing: 0em;
      }

      .cls-36 {
        letter-spacing: 0em;
      }

      .cls-37 {
        letter-spacing: -.05em;
      }

      .cls-38 {
        letter-spacing: .06em;
      }

      .cls-39 {
        fill: #010101;
        font-size: 5.88px;
      }

      .cls-39, .cls-40, .cls-41 {
        font-family: Montserrat-Light, Montserrat;
        font-weight: 300;
      }

      .cls-42 {
        fill: url(#Degradado_sin_nombre_318);
      }

      .cls-43 {
        fill: #1d262d;
      }

      .cls-44 {
        fill: #fee44b;
      }

      .cls-45 {
        fill: #f26441;
      }

      .cls-46 {
        letter-spacing: -.01em;
      }

      .cls-47 {
        fill: #ef4e83;
      }

      .cls-48 {
        letter-spacing: 0em;
      }

      .cls-49 {
        letter-spacing: 0em;
      }

      .cls-50 {
        letter-spacing: .02em;
      }

      .cls-51 {
        letter-spacing: 0em;
      }

      .cls-52 {
        letter-spacing: .05em;
      }

      .cls-53 {
        letter-spacing: 0em;
      }

      .cls-40 {
        font-size: 16px;
      }

      .cls-40, .cls-41 {
        fill: #fff;
      }

      .cls-12 {
        fill: #383838;
      }

      .cls-41 {
        font-size: 19.96px;
      }

      .cls-54 {
        letter-spacing: .02em;
      }

      .cls-55 {
        letter-spacing: .03em;
      }

      .cls-56 {
        letter-spacing: .06em;
      }

      .cls-57 {
        letter-spacing: .06em;
      }

      .cls-58 {
        fill: url(#linear-gradient);
      }

      .cls-59 {
        fill: #8ad4e8;
      }

      .cls-60 {
        letter-spacing: -.05em;
      }

      .cls-61 {
        letter-spacing: 0em;
      }

      .cls-62 {
        letter-spacing: -.03em;
      }

      .cls-63 {
        letter-spacing: -.01em;
      }

      .cls-64 {
        fill: url(#Degradado_sin_nombre_317);
      }
    </style>
    <linearGradient id="Degradado_sin_nombre_319" data-name="Degradado sin nombre 319" x1="102.34" y1="586.79" x2="102.34" y2="459.19" gradientUnits="userSpaceOnUse">
      <stop offset="0" stop-color="#fee44b"/>
      <stop offset="1" stop-color="#f0689c"/>
    </linearGradient>
    <linearGradient id="Degradado_sin_nombre_318" data-name="Degradado sin nombre 318" x1="201.66" y1="522.99" x2="201.66" y2="395.39" gradientUnits="userSpaceOnUse">
      <stop offset="0" stop-color="#f0689c"/>
      <stop offset="1" stop-color="#7159a6"/>
    </linearGradient>
    <linearGradient id="Degradado_sin_nombre_317" data-name="Degradado sin nombre 317" x1="301.03" y1="459.19" x2="301.03" y2="331.59" gradientUnits="userSpaceOnUse">
      <stop offset="0" stop-color="#7159a6"/>
      <stop offset="1" stop-color="#8ad4e8"/>
    </linearGradient>
    <linearGradient id="linear-gradient" x1="401.94" y1="394.81" x2="401.94" y2="267.2" gradientUnits="userSpaceOnUse">
      <stop offset="0" stop-color="#60c9de"/>
      <stop offset="1" stop-color="#d48b45"/>
    </linearGradient>
    <linearGradient id="linear-gradient-2" x1="503.72" y1="331.01" x2="503.72" y2="203.4" gradientUnits="userSpaceOnUse">
      <stop offset="0" stop-color="#d48b45"/>
      <stop offset="1" stop-color="#f26441"/>
    </linearGradient>
    <linearGradient id="linear-gradient-3" x1="608.43" y1="267.2" x2="608.43" y2="139.6" xlink:href="#linear-gradient-2"/>
  </defs>
  <circle class="cls-12" cx="337.88" cy="496.6" r="51.74"/>
  <circle class="cls-12" cx="52.09" cy="424.29" r="51.74"/>
  <path class="cls-26" d="M228.97,395.39h74.73v33.86c0,16.53-13.42,29.95-29.95,29.95h-74.73v-33.86c0-16.53,13.42-29.95,29.95-29.95Z"/>
  <path class="cls-44" d="M30.07,522.99h74.4c.11,0,.2.09.2.2v33.53c0,16.6-13.47,30.07-30.07,30.07H.2c-.11,0-.2-.09-.2-.2v-33.53c0-16.6,13.47-30.07,30.07-30.07Z"/>
  <path class="cls-23" d="M104.47,522.99h-19.96c.11,0,.2.09.2.2v33.53c0,16.61-13.46,30.07-30.07,30.07h19.96c16.61,0,30.07-13.46,30.07-30.07v-33.53c0-.11-.09-.2-.2-.2Z"/>
  <path class="cls-59" d="M328.49,331.59h74.73v33.86c0,16.53-13.42,29.95-29.95,29.95h-74.73v-33.86c0-16.53,13.42-29.95,29.95-29.95Z"/>
  <path class="cls-7" d="M383.25,331.59v33.86c0,16.54-13.41,29.95-29.95,29.95h19.96c16.54,0,29.95-13.41,29.95-29.95v-33.86h-19.96Z"/>
  <path class="cls-3" d="M129.56,459.19h74.63v33.75c0,16.58-13.46,30.05-30.05,30.05h-74.63v-33.75c0-16.58,13.46-30.05,30.05-30.05Z"/>
  <path class="cls-47" d="M184.22,459.19v33.75c0,16.59-13.45,30.05-30.05,30.05h19.96c16.59,0,30.05-13.45,30.05-30.05v-33.75h-19.96Z"/>
  <path class="cls-6" d="M283.74,395.39v33.86c0,16.54-13.41,29.95-29.95,29.95h19.96c16.54,0,29.95-13.41,29.95-29.95v-33.86h-19.96Z"/>
  <path class="cls-32" d="M129.57,459.19c-16.59,0-30.05,13.45-30.05,30.05v33.75h-.2c.11,0,.2.09.2.2v33.53c0,16.61-13.46,30.07-30.07,30.07h5.66c16.61,0,30.07-13.46,30.07-30.07v-33.53c0-.11-.09-.2-.2-.2h.2v-33.75c0-16.59,13.45-30.05,30.05-30.05h-5.66Z"/>
  <path class="cls-42" d="M228.89,395.39c-16.59,0-30.05,13.45-30.05,30.05v33.75h-.2c.11,0,.2.09.2.2v33.53c0,16.61-13.46,30.07-30.07,30.07h5.66c16.61,0,30.07-13.46,30.07-30.07v-33.53c0-.11-.09-.2-.2-.2h.2v-33.75c0-16.59,13.45-30.05,30.05-30.05h-5.66Z"/>
  <path class="cls-64" d="M328.25,331.59c-16.59,0-30.05,13.45-30.05,30.05v33.75h-.2c.11,0,.2.09.2.2v33.53c0,16.61-13.46,30.07-30.07,30.07h5.66c16.61,0,30.07-13.46,30.07-30.07v-33.53c0-.11-.09-.2-.2-.2h.2v-33.75c0-16.59,13.45-30.05,30.05-30.05h-5.66Z"/>
  <g>
    <text class="cls-41" transform="translate(29.47 558.57)"><tspan class="cls-25" x="0" y="0">2</tspan><tspan class="cls-28" x="11.16" y="0">0</tspan><tspan x="24.28" y="0">18</tspan></text>
    <text class="cls-39" transform="translate(27.89 569.46)"><tspan class="cls-8" x="0" y="0">F</tspan><tspan class="cls-38" x="4.01" y="0">OUN</tspan><tspan class="cls-52" x="19.46" y="0">D</tspan><tspan class="cls-50" x="24.61" y="0">A</tspan><tspan class="cls-38" x="28.9" y="0">TION</tspan></text>
  </g>
  <g>
    <text class="cls-40" transform="translate(112.14 496.6)"><tspan class="cls-36" x="0" y="0">2</tspan><tspan class="cls-48" x="8.94" y="0">0</tspan><tspan class="cls-33" x="19.46" y="0">1</tspan><tspan class="cls-35" x="25.1" y="0">9</tspan><tspan class="cls-14" x="34.88" y="0">-</tspan><tspan class="cls-61" x="40.8" y="0">2</tspan><tspan class="cls-48" x="49.74" y="0">0</tspan><tspan class="cls-36" x="60.26" y="0">2</tspan><tspan class="cls-24" x="69.2" y="0">0</tspan></text>
    <text class="cls-39" transform="translate(133.71 506.48)"><tspan class="cls-38" x="0" y="0">GR</tspan><tspan class="cls-16" x="9.49" y="0">O</tspan><tspan class="cls-9" x="14.65" y="0">W</tspan><tspan class="cls-38" x="21.44" y="0">TH</tspan></text>
  </g>
  <g>
    <text class="cls-41" transform="translate(224.88 432.01)"><tspan class="cls-17" x="0" y="0">2</tspan><tspan class="cls-18" x="11.16" y="0">0</tspan><tspan x="24.28" y="0">21</tspan></text>
    <text class="cls-39" transform="translate(226.59 442.9)"><tspan class="cls-8" x="0" y="0">E</tspan><tspan class="cls-29" x="4.24" y="0">X</tspan><tspan class="cls-15" x="8.22" y="0">P</tspan><tspan class="cls-56" x="12.52" y="0">ANSION</tspan></text>
  </g>
  <g>
    <text class="cls-41" transform="translate(321.58 367.8)"><tspan class="cls-53" x="0" y="0">2</tspan><tspan class="cls-13" x="11.16" y="0">0</tspan><tspan x="24.28" y="0">22</tspan></text>
    <text class="cls-39" transform="translate(313.93 376.68)"><tspan class="cls-56" x="0" y="0">G</tspan><tspan class="cls-20" x="4.9" y="0">L</tspan><tspan class="cls-57" x="8.61" y="0">OBAL </tspan><tspan class="cls-1" x="28.83" y="0">P</tspan><tspan class="cls-57" x="33.33" y="0">RESENCE</tspan></text>
  </g>
  <path class="cls-27" d="M429.4,267.2h74.73v33.86c0,16.53-13.42,29.95-29.95,29.95h-74.73v-33.86c0-16.53,13.42-29.95,29.95-29.95Z"/>
  <path class="cls-2" d="M485.93,267.2v33.86c0,16.54-13.41,29.95-29.95,29.95h19.96c16.54,0,29.95-13.41,29.95-29.95v-33.86h-19.96Z"/>
  <path class="cls-58" d="M429.17,267.2c-16.59,0-30.05,13.45-30.05,30.05v33.75h-.2c.11,0,.2.09.2.2v33.53c0,16.61-13.46,30.07-30.07,30.07h5.66c16.61,0,30.07-13.46,30.07-30.07v-33.53c0-.11-.09-.2-.2-.2h.2v-33.75c0-16.59,13.45-30.05,30.05-30.05h-5.66Z"/>
  <g>
    <text class="cls-41" transform="translate(429.49 303.41)"><tspan class="cls-53" x="0" y="0">2</tspan><tspan class="cls-13" x="11.16" y="0">0</tspan><tspan x="24.28" y="0">23</tspan></text>
    <text class="cls-39" transform="translate(428.85 314.3)"><tspan class="cls-57" x="0" y="0">INN</tspan><tspan class="cls-16" x="12.37" y="0">O</tspan><tspan class="cls-54" x="17.53" y="0">V</tspan><tspan class="cls-55" x="21.71" y="0">A</tspan><tspan class="cls-56" x="26.01" y="0">TION</tspan></text>
  </g>
  <path class="cls-45" d="M535.18,203.4h74.73v33.86c0,16.53-13.42,29.95-29.95,29.95h-74.73v-33.86c0-16.53,13.42-29.95,29.95-29.95Z"/>
  <path class="cls-4" d="M590.94,203.4v33.86c0,16.54-13.41,29.95-29.95,29.95h19.96c16.54,0,29.95-13.41,29.95-29.95v-33.86h-19.96Z"/>
  <path class="cls-5" d="M530.95,203.4c-16.59,0-30.05,13.45-30.05,30.05v33.75h-.2c.11,0,.2.09.2.2v33.53c0,16.61-13.46,30.07-30.07,30.07h5.66c16.61,0,30.07-13.46,30.07-30.07v-33.53c0-.11-.09-.2-.2-.2h.2v-33.75c0-16.59,13.45-30.05,30.05-30.05h-5.66Z"/>
  <g>
    <text class="cls-41" transform="translate(536.27 239.61)"><tspan class="cls-53" x="0" y="0">2</tspan><tspan class="cls-13" x="11.16" y="0">0</tspan><tspan class="cls-62" x="24.28" y="0">2</tspan><tspan class="cls-21" x="35" y="0">4</tspan></text>
    <text class="cls-39" transform="translate(512.63 250.5)"><tspan class="cls-56" x="0" y="0">SO</tspan><tspan class="cls-20" x="9.22" y="0">U</tspan><tspan class="cls-56" x="14.15" y="0">THEA</tspan><tspan class="cls-1" x="31.75" y="0">S</tspan><tspan class="cls-56" x="35.63" y="0">T ASIA HUB</tspan></text>
  </g>
  <g>
    <line class="cls-31" x1="337.88" y1="399.83" x2="337.88" y2="454.28"/>
    <path class="cls-31" d="M342.55,394.93c0,2.71-2.2,4.91-4.91,4.91s-4.91-2.2-4.91-4.91,2.2-4.91,4.91-4.91,4.91,2.2,4.91,4.91Z"/>
    <path class="cls-43" d="M339.76,394.93c0,1.17-.95,2.12-2.12,2.12s-2.12-.95-2.12-2.12.95-2.12,2.12-2.12,2.12.95,2.12,2.12Z"/>
  </g>
  <g>
    <line class="cls-31" x1="52.34" y1="518.79" x2="52.34" y2="468.02"/>
    <circle class="cls-31" cx="52.57" cy="523.7" r="4.91"/>
    <circle class="cls-43" cx="52.57" cy="523.7" r="2.12"/>
  </g>
  <text class="cls-11" transform="translate(39.22 408.24)"><tspan x="0" y="0">Zaimah</tspan><tspan x="-31.03" y="11"> </tspan><tspan class="cls-37" x="-29.29" y="11">T</tspan><tspan x="-25.44" y="11">echnologies was founded </tspan><tspan x="-24.17" y="22">in Bangladesh, of</tspan><tspan class="cls-46" x="29.86" y="22">f</tspan><tspan x="32.08" y="22">ering </tspan><tspan x="-27.98" y="33">softwa</tspan><tspan class="cls-34" x="-6.54" y="33">r</tspan><tspan x="-4.15" y="33">e solutions and </tspan><tspan class="cls-63" x="45.66" y="33">I</tspan><tspan x="47.54" y="33">T </tspan><tspan x="-2.12" y="44">se</tspan><tspan class="cls-49" x="5.21" y="44">r</tspan><tspan x="7.72" y="44">vices.</tspan></text>
  <g>
    <circle class="cls-10" cx="152.6" cy="361.32" r="51.74"/>
    <text class="cls-11" transform="translate(132.64 341.98)"><tspan x="0" y="0">The company</tspan><tspan x="-13.74" y="11" xml:space="preserve"> added </tspan><tspan class="cls-63" x="9.18" y="11">I</tspan><tspan x="11.06" y="11">T consultanc</tspan><tspan class="cls-60" x="51.86" y="11">y</tspan><tspan x="55.02" y="11">, </tspan><tspan x="-16.86" y="22">cloud, and cybersecurity </tspan><tspan x="-17.12" y="33">se</tspan><tspan class="cls-49" x="-9.79" y="33">r</tspan><tspan x="-7.28" y="33">vices, building a solid </tspan><tspan x="3.35" y="44">client base.</tspan></text>
    <g>
      <line class="cls-31" x1="151.62" y1="454.41" x2="151.62" y2="403.64"/>
      <circle class="cls-31" cx="151.85" cy="459.31" r="4.91"/>
      <circle class="cls-43" cx="151.85" cy="459.31" r="2.12"/>
    </g>
  </g>
  <g>
    <circle class="cls-12" cx="255.04" cy="297.71" r="51.74"/>
    <g>
      <line class="cls-31" x1="254.06" y1="390.67" x2="254.06" y2="339.91"/>
      <circle class="cls-31" cx="254.29" cy="395.58" r="4.91"/>
      <circle class="cls-43" cx="254.29" cy="395.58" r="2.12"/>
    </g>
  </g>
  <text class="cls-11" transform="translate(243.17 281.89)"><tspan x="0" y="0">Zaimah </tspan><tspan class="cls-37" x="-19.68" y="11">T</tspan><tspan x="-15.83" y="11">echnologies began </tspan><tspan x="-25.05" y="22">international expansion </tspan><tspan x="-7.38" y="33">ac</tspan><tspan class="cls-22" x=".13" y="33">r</tspan><tspan x="2.51" y="33">oss Asia.</tspan></text>
  <text class="cls-11" transform="translate(317.34 478.56)"><tspan x="0" y="0">The company</tspan><tspan x="-20.37" y="11" xml:space="preserve"> ente</tspan><tspan class="cls-34" x="-4.97" y="11">r</tspan><tspan x="-2.58" y="11">ed the USA,Mal</tspan><tspan class="cls-51" x="45.06" y="11">a</tspan><tspan x="48.85" y="11">ysia, </tspan><tspan x="-10.35" y="22">and the Middle East, </tspan><tspan x="-13.26" y="33">focusing on ad</tspan><tspan class="cls-51" x="33.31" y="33">v</tspan><tspan x="36.78" y="33">anced</tspan><tspan x="-9.66" y="44" xml:space="preserve"> softwa</tspan><tspan class="cls-34" x="13.53" y="44">r</tspan><tspan x="15.92" y="44">e solutions.</tspan></text>
  <circle class="cls-12" cx="438.98" cy="431.8" r="51.74"/>
  <g>
    <line class="cls-31" x1="438.98" y1="335.04" x2="438.98" y2="389.49"/>
    <path class="cls-31" d="M443.66,330.13c0,2.71-2.2,4.91-4.91,4.91s-4.91-2.2-4.91-4.91,2.2-4.91,4.91-4.91,4.91,2.2,4.91,4.91Z"/>
    <path class="cls-43" d="M440.87,330.13c0,1.17-.95,2.12-2.12,2.12s-2.12-.95-2.12-2.12.95-2.12,2.12-2.12,2.12.95,2.12,2.12Z"/>
  </g>
  <text class="cls-11" transform="translate(407.99 424.76)"><tspan x="0" y="0">Zaimah consolidated </tspan><tspan x="-8.44" y="11">operations and in</tspan><tspan class="cls-19" x="46.25" y="11">v</tspan><tspan x="49.73" y="11">ested in </tspan><tspan x="-5.82" y="22">AI and machine learning.</tspan></text>
  <circle class="cls-12" cx="544.57" cy="369.99" r="51.74"/>
  <g>
    <line class="cls-31" x1="543.57" y1="273.23" x2="543.57" y2="327.68"/>
    <path class="cls-31" d="M548.24,268.33c0,2.71-2.2,4.91-4.91,4.91s-4.91-2.2-4.91-4.91,2.2-4.91,4.91-4.91,4.91,2.2,4.91,4.91Z"/>
    <path class="cls-43" d="M545.46,268.33c0,1.17-.95,2.12-2.12,2.12s-2.12-.95-2.12-2.12.95-2.12,2.12-2.12,2.12.95,2.12,2.12Z"/>
  </g>
  <text class="cls-11" transform="translate(511.66 361.95)"><tspan x="0" y="0">Zaimah </tspan><tspan class="cls-37" x="25.48" y="0">T</tspan><tspan x="29.33" y="0">echnologies </tspan><tspan x="-8.95" y="11">opened a Bangkok office to </tspan><tspan x="-7.1" y="22">expand in Southeast Asia.</tspan></text>
  <path class="cls-45" d="M640.46,139.6h74.73v33.86c0,16.53-13.42,29.95-29.95,29.95h-74.73v-33.86c0-16.53,13.42-29.95,29.95-29.95Z"/>
  <path class="cls-4" d="M695.22,139.6v33.86c0,16.54-13.41,29.95-29.95,29.95h19.96c16.54,0,29.95-13.41,29.95-29.95v-33.86h-19.96Z"/>
  <path class="cls-30" d="M635.66,139.6c-16.59,0-30.05,13.45-30.05,30.05v33.75h-.2c.11,0,.2.09.2.2v33.53c0,16.61-13.46,30.07-30.07,30.07h5.66c16.61,0,30.07-13.46,30.07-30.07v-33.53c0-.11-.09-.2-.2-.2h.2v-33.75c0-16.59,13.45-30.05,30.05-30.05h-5.66Z"/>
  <g>
    <text class="cls-41" transform="translate(641.55 176.52)"><tspan class="cls-53" x="0" y="0">2</tspan><tspan class="cls-13" x="11.16" y="0">0</tspan><tspan x="24.28" y="0">25</tspan></text>
    <text class="cls-39" transform="translate(646.28 185.21)"><tspan class="cls-8" x="0" y="0">E</tspan><tspan class="cls-29" x="4.24" y="0">X</tspan><tspan class="cls-15" x="8.22" y="0">P</tspan><tspan class="cls-56" x="12.52" y="0">ANSION</tspan></text>
  </g>
  <text class="cls-11" transform="translate(628.16 38.35)"><tspan x="0" y="0">Zaimah </tspan><tspan class="cls-37" x="25.48" y="0">T</tspan><tspan x="29.33" y="0">echnologies </tspan><tspan x="4.98" y="11">g</tspan><tspan class="cls-34" x="8.96" y="11">r</tspan><tspan x="11.34" y="11">ew into the USA, </tspan><tspan x="-5.26" y="22">Mal</tspan><tspan class="cls-51" x="6.44" y="22">a</tspan><tspan x="10.23" y="22">ysia, and the Middle </tspan><tspan x="25.9" y="33">East.</tspan></text>
  <circle class="cls-12" cx="659.98" cy="51.74" r="51.74"/>
  <g>
    <line class="cls-31" x1="661.87" y1="135.35" x2="661.87" y2="84.58"/>
    <circle class="cls-31" cx="662.1" cy="140.25" r="4.91"/>
    <circle class="cls-43" cx="662.1" cy="140.25" r="2.12"/>
  </g>
</svg>