<svg id="visual" viewBox="0 0 900 450" width="900" height="450" xmlns="http://www.w3.org/2000/svg" xmlns:xlink="http://www.w3.org/1999/xlink" version="1.1"><path d="M0 304L21.5 308C43 312 86 320 128.8 318.8C171.7 317.7 214.3 307.3 257.2 305.2C300 303 343 309 385.8 315.7C428.7 322.3 471.3 329.7 514.2 339.5C557 349.3 600 361.7 642.8 357.5C685.7 353.3 728.3 332.7 771.2 325.2C814 317.7 857 323.3 878.5 326.2L900 329L900 451L878.5 451C857 451 814 451 771.2 451C728.3 451 685.7 451 642.8 451C600 451 557 451 514.2 451C471.3 451 428.7 451 385.8 451C343 451 300 451 257.2 451C214.3 451 171.7 451 128.8 451C86 451 43 451 21.5 451L0 451Z" fill="#ff633c"></path><path d="M0 347L21.5 345.5C43 344 86 341 128.8 337.7C171.7 334.3 214.3 330.7 257.2 327.7C300 324.7 343 322.3 385.8 333C428.7 343.7 471.3 367.3 514.2 378.2C557 389 600 387 642.8 383.7C685.7 380.3 728.3 375.7 771.2 368.7C814 361.7 857 352.3 878.5 347.7L900 343L900 451L878.5 451C857 451 814 451 771.2 451C728.3 451 685.7 451 642.8 451C600 451 557 451 514.2 451C471.3 451 428.7 451 385.8 451C343 451 300 451 257.2 451C214.3 451 171.7 451 128.8 451C86 451 43 451 21.5 451L0 451Z" fill="#ff8e6a"></path><path d="M0 398L21.5 393C43 388 86 378 128.8 377.7C171.7 377.3 214.3 386.7 257.2 393.7C300 400.7 343 405.3 385.8 407.3C428.7 409.3 471.3 408.7 514.2 408.8C557 409 600 410 642.8 411C685.7 412 728.3 413 771.2 409.2C814 405.3 857 396.7 878.5 392.3L900 388L900 451L878.5 451C857 451 814 451 771.2 451C728.3 451 685.7 451 642.8 451C600 451 557 451 514.2 451C471.3 451 428.7 451 385.8 451C343 451 300 451 257.2 451C214.3 451 171.7 451 128.8 451C86 451 43 451 21.5 451L0 451Z" fill="#ffb49a"></path></svg>