<svg id="visual" viewBox="0 0 900 600" width="900" height="600" xmlns="http://www.w3.org/2000/svg" xmlns:xlink="http://www.w3.org/1999/xlink" version="1.1"><path d="M0 430L21.5 423.7C43 417.3 86 404.7 128.8 401.7C171.7 398.7 214.3 405.3 257.2 413.8C300 422.3 343 432.7 385.8 433.7C428.7 434.7 471.3 426.3 514.2 412.5C557 398.7 600 379.3 642.8 376.7C685.7 374 728.3 388 771.2 400.3C814 412.7 857 423.3 878.5 428.7L900 434L900 601L878.5 601C857 601 814 601 771.2 601C728.3 601 685.7 601 642.8 601C600 601 557 601 514.2 601C471.3 601 428.7 601 385.8 601C343 601 300 601 257.2 601C214.3 601 171.7 601 128.8 601C86 601 43 601 21.5 601L0 601Z" fill="#ff633c"></path><path d="M0 401L21.5 402.2C43 403.3 86 405.7 128.8 418C171.7 430.3 214.3 452.7 257.2 463.3C300 474 343 473 385.8 464.2C428.7 455.3 471.3 438.7 514.2 439C557 439.3 600 456.7 642.8 453.8C685.7 451 728.3 428 771.2 426C814 424 857 443 878.5 452.5L900 462L900 601L878.5 601C857 601 814 601 771.2 601C728.3 601 685.7 601 642.8 601C600 601 557 601 514.2 601C471.3 601 428.7 601 385.8 601C343 601 300 601 257.2 601C214.3 601 171.7 601 128.8 601C86 601 43 601 21.5 601L0 601Z" fill="#ff8e6a"></path><path d="M0 485L21.5 479.7C43 474.3 86 463.7 128.8 458.3C171.7 453 214.3 453 257.2 455.8C300 458.7 343 464.3 385.8 473.8C428.7 483.3 471.3 496.7 514.2 493.2C557 489.7 600 469.3 642.8 462.5C685.7 455.7 728.3 462.3 771.2 466.2C814 470 857 471 878.5 471.5L900 472L900 601L878.5 601C857 601 814 601 771.2 601C728.3 601 685.7 601 642.8 601C600 601 557 601 514.2 601C471.3 601 428.7 601 385.8 601C343 601 300 601 257.2 601C214.3 601 171.7 601 128.8 601C86 601 43 601 21.5 601L0 601Z" fill="#ffb49a"></path><path d="M0 538L21.5 537C43 536 86 534 128.8 533.3C171.7 532.7 214.3 533.3 257.2 526.5C300 519.7 343 505.3 385.8 498.7C428.7 492 471.3 493 514.2 500.3C557 507.7 600 521.3 642.8 529.5C685.7 537.7 728.3 540.3 771.2 541.3C814 542.3 857 541.7 878.5 541.3L900 541L900 601L878.5 601C857 601 814 601 771.2 601C728.3 601 685.7 601 642.8 601C600 601 557 601 514.2 601C471.3 601 428.7 601 385.8 601C343 601 300 601 257.2 601C214.3 601 171.7 601 128.8 601C86 601 43 601 21.5 601L0 601Z" fill="#ffb49a"></path><path d="M0 545L21.5 547.2C43 549.3 86 553.7 128.8 557.2C171.7 560.7 214.3 563.3 257.2 564.2C300 565 343 564 385.8 558.3C428.7 552.7 471.3 542.3 514.2 537.8C557 533.3 600 534.7 642.8 536.7C685.7 538.7 728.3 541.3 771.2 541.3C814 541.3 857 538.7 878.5 537.3L900 536L900 601L878.5 601C857 601 814 601 771.2 601C728.3 601 685.7 601 642.8 601C600 601 557 601 514.2 601C471.3 601 428.7 601 385.8 601C343 601 300 601 257.2 601C214.3 601 171.7 601 128.8 601C86 601 43 601 21.5 601L0 601Z" fill="#ffffff"></path></svg>