<svg id="visual" viewBox="0 0 900 450" width="900" height="450" xmlns="http://www.w3.org/2000/svg" xmlns:xlink="http://www.w3.org/1999/xlink" version="1.1"><path d="M0 387L21.5 386.2C43 385.3 86 383.7 128.8 384.8C171.7 386 214.3 390 257.2 389.7C300 389.3 343 384.7 385.8 377.8C428.7 371 471.3 362 514.2 361.5C557 361 600 369 642.8 372.8C685.7 376.7 728.3 376.3 771.2 378.8C814 381.3 857 386.7 878.5 389.3L900 392L900 451L878.5 451C857 451 814 451 771.2 451C728.3 451 685.7 451 642.8 451C600 451 557 451 514.2 451C471.3 451 428.7 451 385.8 451C343 451 300 451 257.2 451C214.3 451 171.7 451 128.8 451C86 451 43 451 21.5 451L0 451Z" fill="#cb040e"></path><path d="M0 383L21.5 388.7C43 394.3 86 405.7 128.8 410.8C171.7 416 214.3 415 257.2 414C300 413 343 412 385.8 412.8C428.7 413.7 471.3 416.3 514.2 414C557 411.7 600 404.3 642.8 405.5C685.7 406.7 728.3 416.3 771.2 415.2C814 414 857 402 878.5 396L900 390L900 451L878.5 451C857 451 814 451 771.2 451C728.3 451 685.7 451 642.8 451C600 451 557 451 514.2 451C471.3 451 428.7 451 385.8 451C343 451 300 451 257.2 451C214.3 451 171.7 451 128.8 451C86 451 43 451 21.5 451L0 451Z" fill="#020063"></path></svg>