<svg width="136" height="56" viewBox="0 0 136 56" fill="none" xmlns="http://www.w3.org/2000/svg">
<g filter="url(#filter0_b_2654_1433)">
<path d="M95.6348 49.7924V49.9067H95.7426C95.7628 49.907 95.7827 49.902 95.8003 49.8921C95.8074 49.8872 95.813 49.8806 95.8168 49.873C95.8206 49.8654 95.8224 49.8569 95.822 49.8484C95.8224 49.8401 95.8206 49.8318 95.8168 49.8243C95.813 49.8169 95.8073 49.8105 95.8003 49.8058C95.7829 49.7955 95.7629 49.7904 95.7426 49.7913H95.6348V49.7924ZM95.7437 49.7115C95.7899 49.7087 95.8356 49.7219 95.8731 49.7487C95.8882 49.7609 95.9001 49.7764 95.908 49.7939C95.9159 49.8115 95.9195 49.8306 95.9185 49.8498C95.9192 49.8664 95.9163 49.8828 95.91 49.8982C95.9037 49.9135 95.8942 49.9273 95.8821 49.9387C95.8532 49.9636 95.8169 49.9785 95.7787 49.9813L95.9231 50.1442H95.8119L95.679 49.9824H95.636V50.1442H95.543V49.7118H95.7452L95.7437 49.7115ZM95.7148 50.2934C95.7636 50.2938 95.812 50.2841 95.8567 50.2648C95.8998 50.2464 95.939 50.2201 95.9722 50.1873C96.0055 50.1546 96.0321 50.1158 96.0505 50.073C96.0884 49.9825 96.0884 49.8807 96.0505 49.7901C96.0318 49.7475 96.0053 49.7088 95.9722 49.6758C95.939 49.643 95.8998 49.6167 95.8567 49.5984C95.8117 49.5801 95.7635 49.571 95.7148 49.5715C95.6654 49.571 95.6163 49.5802 95.5704 49.5984C95.5263 49.6164 95.4862 49.6427 95.4523 49.6758C95.4012 49.7277 95.3666 49.7932 95.3529 49.8644C95.3392 49.9355 95.3469 50.0091 95.3751 50.0759C95.3927 50.1188 95.419 50.1577 95.4523 50.1902C95.4862 50.2233 95.5264 50.2496 95.5704 50.2676C95.616 50.2869 95.6652 50.2967 95.7148 50.2962V50.2934ZM95.7148 49.4675C95.8418 49.4674 95.9637 49.5166 96.0543 49.6046C96.0979 49.6469 96.1327 49.6973 96.1565 49.753C96.1812 49.8101 96.1939 49.8716 96.1939 49.9337C96.1939 49.9959 96.1812 50.0573 96.1565 50.1145C96.1321 50.1698 96.0974 50.2201 96.0543 50.2628C96.0099 50.3048 95.9584 50.3387 95.902 50.3628C95.8428 50.3877 95.7791 50.4003 95.7148 50.4C95.6498 50.4004 95.5853 50.3878 95.5253 50.3628C95.4683 50.3393 95.4163 50.3053 95.372 50.2628C95.3288 50.2186 95.2946 50.1666 95.2711 50.1096C95.2465 50.0525 95.2337 49.991 95.2337 49.9289C95.2337 49.8667 95.2465 49.8052 95.2711 49.7481C95.295 49.6925 95.3297 49.6421 95.3734 49.5998C95.4172 49.5565 95.4693 49.5225 95.5268 49.4998C95.5868 49.4748 95.6512 49.4622 95.7163 49.4626L95.7148 49.4675ZM51.4842 47.7977C51.4842 46.9732 52.0302 46.296 52.9225 46.296C53.7752 46.296 54.3506 46.9441 54.3506 47.7977C54.3506 48.6513 53.7752 49.2994 52.9225 49.2994C52.0302 49.2994 51.4842 48.6222 51.4842 47.7977ZM55.3226 47.7977V45.4515H54.2917V46.023C53.9647 45.6007 53.4687 45.3358 52.7942 45.3358C51.4654 45.3358 50.4226 46.3668 50.4226 47.7988C50.4226 49.2309 51.4649 50.2619 52.7942 50.2619C53.4684 50.2619 53.9647 49.9967 54.2917 49.5746V50.1442H55.3215V47.7977H55.3226ZM90.1571 47.7977C90.1571 46.9732 90.7031 46.296 91.5957 46.296C92.4492 46.296 93.0238 46.9441 93.0238 47.7977C93.0238 48.6513 92.4492 49.2994 91.5957 49.2994C90.7034 49.2994 90.1571 48.6222 90.1571 47.7977ZM93.9967 47.7977V43.5682H92.9649V46.023C92.6379 45.6007 92.1419 45.3358 91.4674 45.3358C90.1386 45.3358 89.0958 46.3668 89.0958 47.7988C89.0958 49.2309 90.1381 50.2619 91.4674 50.2619C92.1419 50.2619 92.6379 49.9967 92.9649 49.5746V50.1442H93.9967V47.7977ZM68.1181 46.2477C68.7825 46.2477 69.2091 46.6597 69.318 47.3853H66.8581C66.9681 46.708 67.3838 46.2477 68.1184 46.2477H68.1181ZM68.1389 45.3332C66.7494 45.3332 65.7774 46.3334 65.7774 47.7963C65.7774 49.2877 66.7884 50.2594 68.2079 50.2594C68.922 50.2594 69.576 50.083 70.1514 49.6021L69.6462 48.8462C69.2487 49.1606 68.7426 49.3369 68.2668 49.3369C67.6025 49.3369 66.9976 49.0325 66.8488 48.1881H70.3692C70.3793 48.0612 70.3897 47.9332 70.3897 47.796C70.3793 46.3337 69.4653 45.3329 68.1383 45.3329L68.1389 45.3332ZM80.5854 47.796C80.5854 46.9715 81.1313 46.2942 82.0236 46.2942C82.8763 46.2942 83.4518 46.9424 83.4518 47.796C83.4518 48.6496 82.8763 49.2977 82.0236 49.2977C81.1313 49.2977 80.5851 48.6204 80.5851 47.796H80.5854ZM84.4235 47.796V45.4515H83.3931V46.023C83.065 45.6007 82.5701 45.3358 81.8957 45.3358C80.5669 45.3358 79.5241 46.3668 79.5241 47.7988C79.5241 49.2309 80.5663 50.2619 81.8957 50.2619C82.5701 50.2619 83.065 49.9967 83.3931 49.5746V50.1442H84.4238V47.7977L84.4235 47.796ZM74.7634 47.796C74.7634 49.2189 75.7646 50.2591 77.2926 50.2591C78.0067 50.2591 78.4825 50.1019 78.9969 49.6998L78.5018 48.8754C78.1147 49.1506 77.7083 49.2977 77.2597 49.2977C76.4367 49.2877 75.8316 48.699 75.8316 47.796C75.8316 46.8929 76.4367 46.3045 77.2597 46.2942C77.7071 46.2942 78.1136 46.4414 78.5018 46.7166L78.9969 45.8922C78.4816 45.4901 78.0058 45.3329 77.2926 45.3329C75.7646 45.3329 74.7634 46.3728 74.7634 47.796ZM88.0539 45.3329C87.4592 45.3329 87.0718 45.6081 86.804 46.0202V45.4515H85.7823V50.1416H86.8144V47.5125C86.8144 46.7363 87.1515 46.3051 87.8254 46.3051C88.0461 46.3019 88.2652 46.3421 88.4702 46.4231L88.7879 45.4618C88.5597 45.3729 88.2622 45.3338 88.0533 45.3338L88.0539 45.3329ZM60.4196 45.8244C59.9236 45.5009 59.2402 45.3338 58.4862 45.3338C57.2851 45.3338 56.5119 45.9033 56.5119 46.8352C56.5119 47.5999 57.0876 48.0718 58.1477 48.2189L58.6347 48.2875C59.2 48.3661 59.4669 48.5133 59.4669 48.7782C59.4669 49.1408 59.0914 49.3477 58.3863 49.3477C57.6722 49.3477 57.1569 49.122 56.8094 48.8571L56.325 49.6524C56.8903 50.0645 57.6043 50.2611 58.3776 50.2611C59.7468 50.2611 60.5403 49.6232 60.5403 48.7302C60.5403 47.9057 59.9158 47.4745 58.884 47.3273L58.3981 47.2576C57.9518 47.2004 57.5942 47.1116 57.5942 46.7972C57.5942 46.4543 57.9313 46.2479 58.4969 46.2479C59.1021 46.2479 59.6879 46.4737 59.975 46.65L60.4213 45.8256L60.4196 45.8244ZM73.722 45.3346C73.1272 45.3346 72.7399 45.6098 72.4732 46.0219V45.4515H71.4515V50.1416H72.4825V47.5125C72.4825 46.7363 72.8196 46.3051 73.4935 46.3051C73.7142 46.3019 73.9333 46.3421 74.1383 46.4231L74.456 45.4618C74.2278 45.3729 73.9303 45.3338 73.7214 45.3338L73.722 45.3346ZM64.9244 45.4515H63.2386V44.0286H62.1964V45.4515H61.2348V46.3837H62.1964V48.5233C62.1964 49.6115 62.6233 50.2596 63.8429 50.2596C64.2904 50.2596 64.8057 50.1225 65.1327 49.897L64.8349 49.0237C64.5272 49.2 64.1901 49.2889 63.9221 49.2889C63.4067 49.2889 63.2386 48.9745 63.2386 48.5038V46.3845H64.9244V45.4515ZM49.511 50.1428V47.1993C49.511 46.0908 48.7969 45.3449 47.6458 45.3349C47.0406 45.3249 46.4164 45.5112 45.9794 46.1694C45.6524 45.6492 45.137 45.3349 44.4126 45.3349C43.9062 45.3349 43.4114 45.4821 43.024 46.0313V45.4515H41.9922V50.1416H43.0321V47.5411C43.0321 46.7269 43.4885 46.2942 44.1933 46.2942C44.8779 46.2942 45.2243 46.7358 45.2243 47.5308V50.141H46.2665V47.5405C46.2665 46.7263 46.7422 46.2937 47.4266 46.2937C48.1305 46.2937 48.4665 46.7352 48.4665 47.5302V50.1405L49.511 50.1428Z" fill="#1F2937"/>
<path d="M96.2254 34.5415V33.8557H96.0449L95.836 34.3263L95.6283 33.8557H95.4472V34.5415H95.5755V34.0248L95.7707 34.4706H95.9036L96.0989 34.0237V34.5415H96.226H96.2254ZM95.0801 34.5415V33.9731H95.3111V33.8574H94.7207V33.9731H94.9518V34.5415H95.0789H95.0801Z" fill="#1F2937"/>
<path d="M61.0691 23.5951C61.0691 17.9605 63.7359 12.9412 67.8886 9.70648C64.7452 7.25439 60.8573 5.92355 56.8543 5.9294C46.9934 5.9294 39 13.8385 39 23.5951C39 33.3518 46.9934 41.2609 56.8543 41.2609C60.8574 41.2668 64.7454 39.9359 67.8889 37.4838C63.7365 34.2497 61.0691 29.23 61.0691 23.5951Z" fill="#1F2937"/>
<path d="M96.7809 23.5951C96.7809 33.3518 88.7875 41.2609 78.9266 41.2609C74.9231 41.2667 71.0347 39.9359 67.8906 37.4838C72.0445 34.2491 74.7112 29.23 74.7112 23.5951C74.7112 17.9602 72.0445 12.9412 67.8906 9.70648C71.0346 7.25446 74.9229 5.92365 78.9263 5.9294C88.7872 5.9294 96.7806 13.8385 96.7806 23.5951" fill="#1F2937"/>
</g>
<defs>
<filter id="filter0_b_2654_1433" x="-4" y="-4" width="144" height="64" filterUnits="userSpaceOnUse" color-interpolation-filters="sRGB">
<feFlood flood-opacity="0" result="BackgroundImageFix"/>
<feGaussianBlur in="BackgroundImageFix" stdDeviation="2"/>
<feComposite in2="SourceAlpha" operator="in" result="effect1_backgroundBlur_2654_1433"/>
<feBlend mode="normal" in="SourceGraphic" in2="effect1_backgroundBlur_2654_1433" result="shape"/>
</filter>
</defs>
</svg>
