<svg id="visual" viewBox="0 0 900 600" width="900" height="600" xmlns="http://www.w3.org/2000/svg" xmlns:xlink="http://www.w3.org/1999/xlink" version="1.1"><path d="M0 412L11.5 418.2C23 424.3 46 436.7 69 451.5C92 466.3 115 483.7 138.2 487C161.3 490.3 184.7 479.7 207.8 474.5C231 469.3 254 469.7 277 464C300 458.3 323 446.7 346 448.8C369 451 392 467 415.2 469.7C438.3 472.3 461.7 461.7 484.8 459.7C508 457.7 531 464.3 554 460C577 455.7 600 440.3 623 438C646 435.7 669 446.3 692.2 453.5C715.3 460.7 738.7 464.3 761.8 468.2C785 472 808 476 831 478.3C854 480.7 877 481.3 888.5 481.7L900 482L900 601L888.5 601C877 601 854 601 831 601C808 601 785 601 761.8 601C738.7 601 715.3 601 692.2 601C669 601 646 601 623 601C600 601 577 601 554 601C531 601 508 601 484.8 601C461.7 601 438.3 601 415.2 601C392 601 369 601 346 601C323 601 300 601 277 601C254 601 231 601 207.8 601C184.7 601 161.3 601 138.2 601C115 601 92 601 69 601C46 601 23 601 11.5 601L0 601Z" fill="#00289f"></path><path d="M0 490L11.5 496.3C23 502.7 46 515.3 69 516C92 516.7 115 505.3 138.2 509.8C161.3 514.3 184.7 534.7 207.8 534.8C231 535 254 515 277 508.8C300 502.7 323 510.3 346 512.8C369 515.3 392 512.7 415.2 507.3C438.3 502 461.7 494 484.8 490.7C508 487.3 531 488.7 554 494.8C577 501 600 512 623 517.8C646 523.7 669 524.3 692.2 519.2C715.3 514 738.7 503 761.8 498C785 493 808 494 831 497.3C854 500.7 877 506.3 888.5 509.2L900 512L900 601L888.5 601C877 601 854 601 831 601C808 601 785 601 761.8 601C738.7 601 715.3 601 692.2 601C669 601 646 601 623 601C600 601 577 601 554 601C531 601 508 601 484.8 601C461.7 601 438.3 601 415.2 601C392 601 369 601 346 601C323 601 300 601 277 601C254 601 231 601 207.8 601C184.7 601 161.3 601 138.2 601C115 601 92 601 69 601C46 601 23 601 11.5 601L0 601Z" fill="#f71503"></path></svg>