<svg id="visual" viewBox="0 0 900 450" width="900" height="450" xmlns="http://www.w3.org/2000/svg" xmlns:xlink="http://www.w3.org/1999/xlink" version="1.1"><path d="M0 384L21.5 381C43 378 86 372 128.8 367.3C171.7 362.7 214.3 359.3 257.2 364C300 368.7 343 381.3 385.8 387C428.7 392.7 471.3 391.3 514.2 390.7C557 390 600 390 642.8 383.3C685.7 376.7 728.3 363.3 771.2 363C814 362.7 857 375.3 878.5 381.7L900 388L900 451L878.5 451C857 451 814 451 771.2 451C728.3 451 685.7 451 642.8 451C600 451 557 451 514.2 451C471.3 451 428.7 451 385.8 451C343 451 300 451 257.2 451C214.3 451 171.7 451 128.8 451C86 451 43 451 21.5 451L0 451Z" fill="#ad1840"></path><path d="M0 406L21.5 408.8C43 411.7 86 417.3 128.8 420.2C171.7 423 214.3 423 257.2 416.2C300 409.3 343 395.7 385.8 395.7C428.7 395.7 471.3 409.3 514.2 410.7C557 412 600 401 642.8 396.3C685.7 391.7 728.3 393.3 771.2 395.7C814 398 857 401 878.5 402.5L900 404L900 451L878.5 451C857 451 814 451 771.2 451C728.3 451 685.7 451 642.8 451C600 451 557 451 514.2 451C471.3 451 428.7 451 385.8 451C343 451 300 451 257.2 451C214.3 451 171.7 451 128.8 451C86 451 43 451 21.5 451L0 451Z" fill="#0a2f5e"></path></svg>